<svg version="1.1" xmlns="http://www.w3.org/2000/svg" xmlns:xlink="http://www.w3.org/1999/xlink" x="0px" y="0px" viewBox="0 0 1000 1000" enable-background="new 0 0 1000 1000" xml:space="preserve">
    <g id="layer1" transform="rotate(-90 500 500)">
        <g>
            <path stroke="white" fill="teal" d="M797.9,354.7c-39.4,0-73.9,14.8-98.5,39.4L349.8,192.2c4.9-9.8,4.9-24.6,4.9-34.5C354.7,74,290.7,10,207,10C123.3,10,59.2,74,59.2,157.7c0,83.7,64,147.7,147.7,147.7c39.4,0,73.9-14.8,98.5-39.4L655.1,468c-4.9,9.8-4.9,24.6-4.9,34.5s0,24.6,4.9,34.5L305.5,743.8c-24.6-24.6-59.1-39.4-98.5-39.4c-78.8,0-142.8,64-142.8,142.8C64.2,926,128.2,990,207,990c78.8,0,142.8-64,142.8-142.8c0-9.8,0-19.7-4.9-34.5l349.6-206.8c24.6,24.6,59.1,39.4,98.5,39.4c83.7,0,147.7-64,147.7-147.7C940.8,413.8,881.7,354.7,797.9,354.7z"/>
        </g>
    </g>
</svg>