<?xml version="1.0" encoding="UTF-8" standalone="no"?>
<!-- Created with Inkscape (http://www.inkscape.org/) -->
<svg
   xmlns:svg="http://www.w3.org/2000/svg"
   xmlns="http://www.w3.org/2000/svg"
   version="1.0"
   width="250"
   height="120"
   id="svg1936">
  <defs
     id="defs1938" />
  <g
     id="layer1">
    <path
       d="M 69.490537,3.6337104 C 67.600497,3.5681704 64.754727,3.9317204 62.990537,4.6024604 C 56.816147,6.9499604 45.428037,20.32285 45.428037,25.22746 C 45.428037,26.44891 46.483077,28.24514 47.865537,29.28996 C 49.247997,30.33479 51.084287,29.57121 51.084287,29.57121 L 44.084287,41.47746 C 37.321047,54.07163 34.001947,54.2873 29.146787,58.57121 C 26.310977,58.84499 24.475407,58.58936 22.365537,58.75871 C 14.223257,59.41229 8.0226966,62.6167 5.4592866,66.82121 C 2.5209667,71.64067 2.7466667,78.19078 6.0530366,83.28996 C 15.006747,97.098633 45.410507,102.89517 78.553037,97.102463 C 82.529387,96.407473 84.801467,95.896303 86.949377,95.439003 C 89.153597,96.262233 90.460527,96.493643 93.05304,97.196213 C 97.03496,98.275313 102.94371,98.742343 111.49054,98.696213 C 115.80028,98.672953 120.69376,98.529323 123.05604,98.702643 C 126.30369,99.806553 126.892,99.998813 129.99054,100.94621 C 133.33914,101.97007 138.97448,104.09321 142.70929,105.10246 C 146.44412,106.11173 148.28234,106.87724 149.61527,107.35181 C 149.18045,107.78221 143.76245,110.10222 138.67804,112.03996 C 133.59362,113.97771 128.19362,116.28578 126.67804,117.16496 C 123.4047,119.06382 124.31838,118.77986 139.92804,112.91496 L 151.92804,108.38371 L 159.95929,109.50871 C 169.801,110.87636 191.39598,110.9296 197.14679,109.60246 C 207.4257,107.23036 217.42804,100.56199 217.42804,96.071213 C 217.42804,89.20934 204.59451,87.53435 188.11554,92.258713 C 183.06205,93.707503 173.45323,97.307493 166.77179,100.25871 C 160.09036,103.20992 153.79036,105.6093 152.77179,105.60246 C 150.38826,105.58647 134.90751,101.24196 130.61554,99.383713 L 127.33429,97.977463 L 131.61554,96.696213 C 133.97751,95.989373 138.42836,94.147283 141.49054,92.602463 C 143.75952,91.457793 146.07857,90.5586 147.90653,89.35677 C 151.35516,89.87238 155.6357,89.76653 168.05304,89.72746 C 191.19099,89.65465 199.23579,88.5829 214.74054,83.53996 C 225.68781,79.97933 241.20038,72.63134 243.77179,69.78996 C 246.20547,67.10077 246.70526,65.90715 240.80489,64.72499 C 237.88071,64.49163 235.04471,64.53844 232.14122,64.54306 C 231.86871,62.47734 230.98023,61.67086 229.95929,59.53996 C 228.10241,55.66429 229.20049,53.62861 229.84761,51.93564 C 230.99274,51.97027 232.65132,51.94978 234.02179,51.85246 C 243.25974,51.19643 245.77529,45.63371 236.83429,45.63371 C 235.85087,45.63371 234.47757,45.62784 233.77197,45.59148 C 234.47472,44.31829 234.69271,42.90572 236.52179,39.94621 C 237.68452,38.06486 238.38724,36.24916 238.05304,35.91496 C 237.09335,34.95527 229.55671,37.53878 223.74054,40.82121 C 213.88313,46.38439 218.26513,40.76478 230.27179,32.44621 C 239.71917,25.90079 244.26396,18.66056 239.95929,17.00871 C 237.60258,16.10435 232.97147,20.10872 225.36554,29.63371 C 221.14237,34.92242 219.62885,37.24074 217.97649,38.57724 C 216.72862,38.78913 215.30201,38.97611 213.83429,39.19621 C 208.12202,40.05282 203.12042,39.08423 200.95929,36.69621 C 200.32425,35.99449 199.94053,35.71713 199.51543,34.83166 C 200.92427,33.65404 200.6545,34.09162 201.33429,33.66496 C 204.65187,31.58273 203.68359,30.60884 199.95929,32.16496 C 199.11736,32.51674 197.98739,33.00673 196.98001,33.56429 C 193.21578,33.66311 189.39983,33.62057 186.999,33.50195 C 186.48214,33.3088 186.34545,32.3709 185.99054,32.10246 C 181.49804,28.7045 176.57984,31.34341 170.89679,40.22746 C 169.3994,42.56826 169.0938,43.66543 168.55915,44.94356 L 161.54676,45.63685 L 161.46039,46.6149 L 164.31062,46.52924 C 165.46793,46.67285 167.22347,46.40235 167.99069,46.45488 C 167.93533,47.40522 167.58272,48.37563 167.42804,50.57121 C 167.11203,55.05679 169.6567,57.5838 172.24054,55.97746 C 174.82817,54.36877 178.21113,48.90838 180.52179,42.57121 C 182.10764,38.22188 183.27994,36.55564 185.27179,35.82121 C 185.69688,35.66447 185.77464,35.60988 186.6847,34.82114 C 190.07933,34.74968 194.97716,34.5229 196.17934,34.78553 C 196.17934,35.00134 193.89329,37.61938 192.02179,40.07121 C 190.15027,42.52303 187.84955,46.89022 186.89679,49.75871 C 185.23531,54.76095 185.23901,55.00921 186.99054,56.28996 C 189.38127,58.0381 189.66675,58.00697 192.80304,55.53996 C 197.68807,51.19909 200.00791,47.11461 199.61972,38.71347 C 200.5162,39.03502 202.19306,39.35736 203.08429,39.69621 C 204.4483,40.2148 208.00135,40.63371 210.99054,40.63371 C 213.97973,40.63371 215.41663,40.70604 216.58651,40.74289 C 216.56314,41.15539 213.43759,45.95871 209.89679,50.63371 C 206.356,55.30871 203.43889,59.73186 203.42804,60.47746 C 203.42192,60.89813 202.9992,60.29491 203.76822,62.14353 C 202.50839,62.85805 198.81187,65.58849 197.94867,68.49386 L 189.33716,69.61035 L 189.59095,70.79218 C 192.23622,70.52606 194.92072,69.96025 197.48623,69.84643 C 197.44109,70.70685 197.71918,71.03343 197.95929,71.78996 C 198.30301,72.87294 199.95417,74.59213 201.61554,75.60246 C 203.23145,76.58516 203.31127,76.66507 205.15242,76.92017 C 204.56625,77.63603 203.47044,78.06791 202.64679,78.50871 C 199.01055,80.45477 179.26261,85.57846 172.92804,86.22746 C 168.29398,86.70224 165.343,86.44454 161.49054,85.16496 C 156.52072,83.51426 156.351,83.34834 157.95929,81.57121 C 158.88412,80.54928 159.87256,77.72299 160.14679,75.28996 C 160.55599,71.65958 160.26359,70.46926 158.45929,68.66496 C 156.56316,66.76883 155.37144,66.50388 149.83429,66.78996 C 146.46299,66.96414 144.15816,67.48781 143.18029,68.05675 C 142.8474,57.82221 148.502,44.86135 154.55304,34.66496 C 156.86528,31.00801 157.52174,30.24702 159.32132,28.10166 C 161.40688,27.79326 163.88581,27.60833 167.36554,27.13371 C 176.00098,25.9559 184.42804,20.70492 184.42804,16.47746 C 184.42804,13.30239 180.29476,10.42476 176.61554,11.00871 C 172.48995,11.66351 164.7876,17.26205 160.05304,23.03996 C 158.67196,24.72539 158.11984,25.08947 157.19131,26.78716 C 155.82638,26.70591 155.04361,26.93289 152.66418,26.71766 L 147.92804,26.66496 L 152.44229,28.31271 L 155.85168,28.32527 L 152.33429,33.63371 C 145.41546,43.85985 141.39452,53.99838 139.92804,64.88371 C 139.73784,66.29551 139.8234,67.97281 139.76537,69.72374 C 139.06091,70.6434 138.22794,71.689 137.86554,72.38371 C 137.07807,73.89327 136.43143,76.31966 136.42804,77.78996 C 136.42405,79.52028 137.70356,82.20914 139.4221,84.20413 C 141.20115,86.36103 143.83581,87.4149 146.13515,88.70379 C 144.85352,89.55842 135.84956,93.483423 128.42804,94.508713 L 120.92804,95.539963 L 111.42804,91.25871 C 105.45276,88.56882 103.10315,87.0383 101.48761,86.28015 C 101.85008,85.77761 102.29639,84.59676 102.38228,84.24446 C 105.03966,73.34438 102.56724,70.04032 96.46021,67.27479 C 94.21717,66.25904 90.751747,65.83064 89.497737,65.88593 C 85.055127,66.0818 80.219207,68.58109 78.896787,71.25871 C 78.194817,72.19934 77.780747,72.62174 76.709287,74.22746 L 67.146787,69.88371 C 56.150917,65.00725 48.795057,62.33829 41.678037,60.66496 C 38.790537,59.98606 36.834287,59.48362 35.521787,59.19621 C 36.428037,58.28381 37.783217,56.71645 39.459287,54.38371 C 41.427457,51.64442 44.894587,48.82381 49.209287,46.44621 L 56.896787,42.07121 C 56.371527,44.84809 56.242457,47.49728 58.021787,47.47746 C 59.801117,47.45764 62.834287,44.1337 62.834287,44.13371 C 66.790447,41.11391 67.600947,40.79779 67.178037,42.41496 C 66.891487,43.51071 67.017887,44.982 67.459287,45.69621 C 68.415647,47.24364 74.013717,43.71986 79.428037,38.13371 C 84.721007,32.67274 84.957127,34.00486 79.959287,41.00871 C 74.989297,47.97352 74.725947,48.63371 76.834287,48.63371 C 77.614427,48.63371 79.208677,47.09931 80.365537,45.22746 C 83.894367,39.51769 93.65443,31.54761 95.20929,33.10246 C 96.36122,34.25439 92.328597,40.24867 89.115537,42.16496 C 86.487767,43.73217 86.241337,44.13998 87.771787,44.44621 C 88.978937,44.68775 91.469747,42.99438 94.86554,39.60246 C 100.47712,33.99726 103.86777,31.72137 106.70929,31.66496 C 108.24636,31.63445 108.32226,31.94643 107.30304,33.88371 C 106.65197,35.12121 105.03303,37.41779 103.70929,39.00871 C 100.14047,43.29776 96.26308,51.50306 96.61554,53.97746 C 97.0183,56.80503 100.34158,57.2307 104.61554,55.03996 C 109.81526,52.3747 120.6038,42.36383 125.45929,35.69621 C 127.88981,32.35859 128.19395,32.0324 129.64679,30.33683 C 131.94949,30.29845 138.48279,23.81448 141.83429,19.24308 C 144.662,15.38613 145.13823,15.10566 143.30304,15.13371 C 138.24674,15.21099 130.53746,24.33129 128.70929,28.72746 C 128.012,28.92874 126.97246,29.00926 124.64679,29.32121 C 119.77112,29.97517 119.54178,29.39709 121.92804,22.63371 C 123.6593,17.7268 123.75398,15.73055 122.42804,13.63371 C 122.06597,13.06113 122.14809,13.11506 121.59512,12.4329 C 121.20193,12.35873 120.64536,12.97911 119.80304,13.82121 C 119.00478,14.61926 118.75401,14.69543 118.2404,15.63427 C 118.69199,16.30996 118.92616,16.52898 119.42804,17.13371 C 120.52594,18.4566 120.55281,19.64213 119.52179,23.66496 C 118.83102,26.36023 117.99506,29.32755 119.45929,30.25871 C 120.92351,31.18987 124.82663,30.52665 127.67804,30.47746 C 127.67804,32.08588 113.00858,46.30655 107.95929,49.50871 C 102.75281,52.81056 99.428039,53.51105 99.428039,51.32121 C 99.428039,50.60136 101.05407,47.33886 103.05304,44.07121 C 105.05201,40.80357 107.39512,36.95984 108.24054,35.53996 C 111.59561,29.90518 107.50124,28.27907 101.20929,32.72746 C 97.81419,35.12779 97.42804,35.10962 97.42804,32.63371 C 97.42804,29.96074 95.47265,30.11328 91.021787,33.13371 C 86.324037,36.32169 86.044387,36.27628 87.928037,32.63371 C 88.781287,30.98371 89.050987,29.63371 88.521787,29.63371 C 87.992587,29.63371 83.897887,32.78371 79.428037,36.63371 C 74.958187,40.48371 70.880607,43.63371 70.365537,43.63371 C 67.532947,43.63371 71.113447,36.33927 76.365537,31.44621 C 77.489687,30.39891 78.428037,28.66705 78.428037,27.57121 C 78.428037,22.86546 72.571197,24.42739 65.053037,31.16496 C 62.929807,33.06775 60.424687,34.63371 59.490537,34.63371 C 58.556387,34.63371 56.745657,35.18463 55.678037,36.03996 C 54.278497,37.16122 54.093087,37.92658 54.959287,37.53996 C 55.241227,37.41412 55.511997,36.7403 56.053037,36.47746 C 57.863067,35.59812 59.132837,35.55554 60.553037,35.66496 C 60.408947,37.10572 59.700347,37.22311 58.865537,38.41496 C 57.553597,40.28802 46.788317,46.63371 44.928037,46.63371 C 44.631207,46.63371 46.217517,43.03022 48.428037,38.63371 C 51.090587,33.33815 51.662247,31.65513 53.553037,29.69621 C 55.781477,28.78766 56.889787,28.6204 58.928037,27.69621 C 62.498657,26.07721 65.428037,24.31517 65.428037,23.78996 C 65.428037,23.26476 63.750577,23.68674 61.709287,24.72746 C 58.021337,26.60768 55.428037,27.15095 55.428037,26.03996 C 55.428037,24.80505 62.831127,14.3885 67.021787,9.7274604 C 69.443317,7.0341404 71.428037,4.5591404 71.428037,4.2274604 C 71.428037,3.8714004 70.624557,3.6730404 69.490537,3.6337104 z M 69.410297,4.7200704 C 69.175317,5.4756404 67.409547,7.6321604 64.896787,10.57121 C 62.340687,13.56096 58.474597,18.62346 56.303037,21.82121 C 54.253487,24.83931 53.313007,25.92489 52.646787,27.28996 C 51.588157,27.32547 50.720397,27.61357 50.084287,26.97746 C 48.824047,25.71723 49.439797,22.92969 52.021787,18.03996 C 55.318077,11.79752 57.955187,8.9311504 62.740537,6.4774604 C 64.863907,5.2510504 67.064797,4.3400104 69.410297,4.7200704 z M 177.61554,11.88371 C 178.48772,11.83761 179.23951,12.12886 180.36554,12.75871 C 186.1379,15.98749 182.88608,21.18714 172.95929,24.60246 C 169.73692,25.71112 165.57136,26.63371 163.67804,26.63371 L 160.20929,26.63371 L 165.33429,20.75871 C 168.13892,17.52128 172.08017,14.06831 174.11554,13.10246 C 175.75037,12.32668 176.74336,11.92981 177.61554,11.88371 z M 238.86554,18.22746 C 239.24737,18.22895 239.55859,18.38926 239.83429,18.66496 C 241.6129,20.44357 237.49303,26.30425 231.55304,30.41496 C 226.09913,34.18927 223.57805,35.33813 222.39684,36.10039 C 223.07588,35.01236 225.36421,31.99327 229.08429,27.44621 C 234.41318,20.93272 237.21095,18.22098 238.86554,18.22746 z M 138.55304,21.35246 C 137.63438,23.06898 132.20207,27.16162 131.15898,28.01851 C 132.05515,26.36245 131.88083,26.63483 132.42804,25.82121 C 133.287,23.75289 147.3083,11.01806 138.55304,21.35246 z M 75.709287,26.63371 C 76.642227,26.63371 77.428037,27.25104 77.428037,28.00871 C 77.428037,29.41129 75.190607,31.2931 74.021787,31.82121 C 73.753927,31.45923 73.484707,30.81206 72.865537,30.72746 C 72.605087,31.2616 72.233827,32.85112 71.303037,33.53996 C 69.900127,33.66762 67.237227,33.6199 65.834287,33.60246 C 67.732017,30.68622 71.756187,27.65849 75.709287,26.63371 z M 112.64679,31.63371 C 112.21737,31.63371 111.36335,32.98371 110.74054,34.63371 C 109.36489,38.27822 110.64505,38.64154 112.27179,35.07121 C 113.64155,32.06493 113.68592,31.63371 112.64679,31.63371 z M 182.08429,31.82121 C 182.30032,31.78935 182.52455,31.79387 182.70929,31.82121 C 185.49327,32.23327 186.11772,34.63562 183.61554,35.28996 C 182.50844,35.57948 181.37861,36.62777 181.11554,37.63371 C 180.57542,39.69914 172.34911,43.09463 171.23886,43.7737 C 173.28189,39.25965 176.561,34.19593 182.08429,31.82121 z M 67.709287,34.63371 L 70.834287,34.63371 L 66.428037,39.13371 C 60.241207,45.43763 58.247467,44.87415 62.490537,38.00871 C 63.417757,36.50844 63.600187,36.30268 64.615537,34.66496 C 66.079217,34.63586 66.630737,34.63371 67.709287,34.63371 z M 197.39679,38.32121 C 198.03689,38.35463 198.43277,39.01328 198.42804,40.44621 C 198.4163,44.00756 196.25033,49.69401 193.80304,52.60246 C 190.57384,56.44013 186.92721,56.77904 187.83429,53.16496 C 189.66634,45.86553 195.11072,38.20186 197.39679,38.32121 z M 232.05304,38.88371 C 233.52648,38.83876 233.6085,39.79845 231.70929,41.88371 C 228.9039,44.96395 227.19613,48.48072 227.92804,49.66496 C 227.9974,49.77719 228.17289,50.17115 228.52276,50.65673 C 228.15573,51.50045 227.84071,52.55306 227.30304,54.03996 C 226.25394,56.9412 226.31928,57.8396 227.74054,60.00871 C 228.65923,61.41081 229.42804,63.03311 229.42804,63.60246 C 229.42804,63.78212 229.46388,64.08318 229.41309,64.6229 C 227.88773,64.79555 222.68607,64.65606 219.49655,64.66366 C 219.26219,62.9117 218.34787,62.69616 217.85704,62.28774 C 215.0228,60.24541 210.12057,60.13731 206.75342,61.0475 C 207.27385,60.29763 207.2497,59.85459 208.36554,59.16496 C 208.89324,58.83882 210.73403,55.96822 212.42804,52.78996 C 214.80046,48.33883 216.69577,46.28252 220.70929,43.85246 C 225.96861,40.66813 230.15861,38.9415 232.05304,38.88371 z M 179.2674,41.83269 C 179.07794,42.53427 177.66114,46.61832 174.61554,49.88371 C 173.20484,51.39621 171.46264,52.63371 170.74054,52.63371 C 169.19715,52.63371 169.30905,48.41367 170.70615,45.80317 C 172.27916,44.89233 177.21681,42.82706 179.2674,41.83269 z M 238.58429,46.72746 C 239.98995,46.74934 240.44773,47.0959 240.20929,47.82121 C 239.97122,48.54537 238.06857,49.27206 235.99054,49.44621 C 233.21542,49.67879 232.32887,49.4133 232.64679,48.44621 C 232.88486,47.72205 234.78749,46.99537 236.86554,46.82121 C 237.55932,46.76307 238.11574,46.72017 238.58429,46.72746 z M 115.70929,49.60246 C 114.99043,49.69879 113.8473,51.05861 112.92804,53.25871 C 112.09566,55.25088 111.43951,57.16338 111.45929,57.50871 C 111.52606,58.67442 116.42302,52.14527 116.42804,50.88371 C 116.43181,49.93688 116.14061,49.54466 115.70929,49.60246 z M 33.490537,57.82121 C 33.635167,58.12181 33.378827,58.43131 33.305907,58.65202 C 32.775357,58.51316 32.151077,58.46802 31.453927,58.49577 C 32.012577,58.03806 32.370297,57.3836 33.490537,57.82121 z M 24.365537,59.82121 C 25.345117,59.77437 26.119537,59.80789 26.646787,59.97746 C 24.858677,61.32347 24.295807,62.2449 22.303037,63.97746 C 13.728847,71.43206 8.4629466,80.63371 12.771787,80.63371 C 15.660017,80.63371 25.832727,72.01667 30.928037,65.25871 C 32.347477,63.37609 32.950367,62.63703 33.771097,61.44429 C 35.217487,61.49636 36.108847,61.71526 38.021787,61.97746 C 44.901397,62.92042 73.559687,75.79354 75.865537,77.10246 C 75.364597,79.31119 77.540637,86.42104 80.959287,90.41496 C 82.759737,92.518383 83.964687,93.852783 85.022227,94.310913 C 84.192687,94.576193 81.047727,95.373083 75.428037,96.539963 C 70.242217,97.616743 45.146257,98.701933 41.428037,98.008713 C 22.127897,94.410353 13.864207,91.18279 8.5530366,85.13371 C 2.8697367,78.66079 3.4474566,69.0126 9.8030366,64.16496 C 12.554577,62.06626 20.120697,60.02417 24.365537,59.82121 z M 28.584287,60.25871 C 29.615537,60.34786 30.928037,60.6 31.959287,60.85246 C 31.959287,62.65418 21.889257,72.88882 17.990537,75.57121 C 12.988747,79.01254 12.428037,79.18344 12.428037,77.25871 C 12.428037,75.44787 26.778817,60.25871 28.584287,60.25871 z M 211.42804,61.97746 C 213.01081,61.928 214.44241,62.09169 215.39679,62.60246 C 216.97979,63.44965 217.27916,63.67018 217.22383,65.04055 C 215.97753,65.27807 213.08746,65.87377 209.33429,66.50871 C 203.1247,67.55921 201.93266,67.59616 200.36335,67.90988 C 202.93729,62.05106 208.02813,62.28583 211.42804,61.97746 z M 234.58429,67.38371 C 237.76776,67.27814 241.42804,68.24131 241.42804,69.75871 C 241.42804,71.42514 223.31289,79.36439 210.74054,83.19621 C 203.38685,85.43747 196.09516,86.95794 191.42804,87.22746 L 183.92804,87.66496 L 191.92804,85.60246 C 196.32804,84.47787 202.94261,82.01367 206.64679,80.13371 C 208.6528,79.11561 209.89754,78.19814 211.74187,77.16505 C 213.85054,77.08949 216.19742,76.21216 217.14679,76.03996 C 224.63304,74.36732 229.89018,72.10112 231.39647,67.67891 C 232.39932,67.69433 233.40726,67.42274 234.58429,67.38371 z M 89.966867,67.45693 C 94.69839,67.45693 95.86822,68.0573 98.646789,70.53996 C 101.42772,73.02472 101.92804,74.13735 101.92804,78.00871 C 101.92804,81.81739 100.883,84.24602 99.860369,85.45879 C 98.10834,84.55167 94.79532,83.52838 88.611747,80.4317 C 82.974247,77.60848 79.392997,75.51625 78.111747,74.90045 C 79.111747,73.52706 79.484397,71.8618 81.334287,70.53996 C 84.330777,68.39882 85.374827,67.64123 89.966867,67.45693 z M 224.24054,67.63371 C 226.23203,67.6308 228.11691,67.52086 229.07249,67.66325 C 228.29105,68.75496 227.57532,70.22286 224.67804,71.91496 C 221.21128,73.93966 217.56551,75.19144 214.59907,75.43993 C 216.78127,72.71783 219.36469,69.85669 219.69759,67.75686 C 221.38442,67.79884 222.99357,67.63553 224.24054,67.63371 z M 150.20929,67.66496 C 154.60684,67.67839 158.32071,69.4341 159.02179,72.22746 C 159.62954,74.64894 158.80073,78.35545 157.17804,80.38371 C 155.64846,82.29558 153.16324,81.88126 149.39679,79.10246 C 144.6039,75.56638 143.67344,72.01223 143.15541,69.31141 C 143.50866,68.84967 144.93487,68.45787 145.67804,68.25871 C 147.20326,67.84996 148.74344,67.66048 150.20929,67.66496 z M 212.90973,68.3654 C 214.99034,68.3693 216.69321,68.0084 216.69321,68.28552 C 216.69321,70.35691 214.86911,72.85414 212.33429,74.16496 C 208.66455,76.06265 204.43684,76.02543 201.64679,74.07121 C 199.58119,72.6244 199.41528,71.03531 199.33013,69.7297 C 200.129,69.52465 200.92648,69.40657 201.72223,69.2404 C 204.3237,68.69717 209.44205,68.59019 212.90973,68.3654 z M 140.11777,71.28172 C 141.12696,73.38278 141.20437,73.659 142.15724,75.23856 C 143.35063,77.21683 148.45922,82.38396 152.80304,82.91496 C 153.59686,83.012 153.45516,83.84033 152.49054,85.00871 C 151.18613,86.58864 151.29811,86.64411 153.58429,85.60246 C 155.53935,84.71168 156.79084,84.79981 159.49054,86.00871 L 162.92804,87.53996 L 155.77179,87.60468 C 152.78651,87.53176 151.70321,87.73519 150.20178,87.56519 C 151.61249,86.78762 153.12459,86.04803 152.589,85.86902 C 152.44521,85.82096 155.27652,82.88281 154.57662,83.44251 C 152.99482,84.70747 148.93489,86.46106 148.23966,87.13091 C 147.71154,87.20724 146.58295,86.71815 146.49658,86.69118 C 145.38815,86.3451 144.34265,85.66464 142.70929,84.91496 C 138.80835,83.12449 137.06166,78.9506 138.21086,74.81114 C 138.71132,73.00848 139.1531,72.22496 140.11777,71.28172 z M 77.260417,77.92947 C 78.006617,78.33572 83.470697,80.59405 88.521787,83.00871 L 97.70929,87.41496 L 93.39679,90.50871 C 90.534417,92.582203 88.790917,93.400003 87.390637,93.727793 C 86.025727,93.302443 85.243977,92.510433 83.459287,91.00871 C 79.230207,87.45018 76.821067,79.63371 77.260417,77.92947 z M 99.490539,88.38371 L 105.70929,91.13371 C 109.12584,92.642553 113.66888,95.072343 114.19137,95.554213 C 111.34399,95.637883 97.06806,95.765953 92.615537,94.914963 C 91.964677,94.790563 91.646527,94.807733 90.385417,94.447873 C 91.409337,94.020233 92.024207,93.348933 94.89679,91.446213 L 99.490539,88.38371 z M 206.55304,90.50871 C 210.24898,90.5202 213.00066,91.20632 214.42804,92.633713 C 215.52804,93.733713 216.42804,95.244643 216.42804,96.008713 C 216.42804,100.13285 206.72156,105.8247 195.67804,108.16496 C 187.65136,109.86591 171.49988,109.86386 162.42804,108.16496 L 155.92804,106.94621 L 165.52179,102.38371 C 181.42058,94.834893 197.10785,90.47936 206.55304,90.50871 z "
       style="fill:black;fill-opacity:1"
       id="path1902" />
  </g>
</svg>
