<?xml version="1.0" encoding="UTF-8"?>
<svg id="Layer_2" data-name="Layer 2" xmlns="http://www.w3.org/2000/svg" viewBox="0 0 482.99 485">
  <defs>
    <style>
      .cls-1 {
        fill: #b1b2b3;
      }
    </style>
  </defs>
  <g id="Value_Models" data-name="Value Models">
    <g>
      <g>
        <path class="cls-1" d="m454.98,162.76c8.45,22.01,13.57,45.62,14.77,70.16"/>
        <g>
          <path class="cls-1" d="m460.86,210.4c-2.38-15.45-6.43-30.68-12.03-45.28l12.3-4.72c5.94,15.47,10.23,31.62,12.75,48l-13.02,2.01Z"/>
          <polygon class="cls-1" points="450.34 206.43 469.75 232.92 482.99 202.87 450.34 206.43"/>
        </g>
      </g>
      <g>
        <path class="cls-1" d="m394.59,413.75c-17.52,15.78-37.72,29.02-60.21,38.93"/>
        <g>
          <path class="cls-1" d="m358.76,447.75l-6.54-11.44c13.57-7.76,26.34-16.99,37.96-27.46l8.82,9.79c-12.32,11.09-25.86,20.88-40.24,29.11Z"/>
          <polygon class="cls-1" points="352.16 425.06 334.38 452.68 367.18 454.27 352.16 425.06"/>
        </g>
      </g>
      <g>
        <path class="cls-1" d="m160.42,457.03c-22.01-8.45-42.98-20.44-62.02-35.97"/>
        <g>
          <path class="cls-1" d="m158.06,463.18c-15.47-5.94-30.35-13.56-44.2-22.64l7.22-11.02c13.07,8.57,27.1,15.75,41.7,21.36l-4.72,12.3Z"/>
          <polygon class="cls-1" points="131.07 424.36 98.4 421.06 111.87 451 131.07 424.36"/>
        </g>
      </g>
      <g>
        <path class="cls-1" d="m20.17,192.94c5.3-22.98,14.26-45.41,26.99-66.42"/>
        <g>
          <path class="cls-1" d="m26.59,194.43l-12.84-2.96c3.73-16.15,9.2-31.93,16.27-46.92l11.92,5.62c-6.67,14.14-11.83,29.03-15.35,44.27Z"/>
          <polygon class="cls-1" points="48.44 159.33 47.16 126.52 19.38 144.03 48.44 159.33"/>
        </g>
      </g>
      <g>
        <path class="cls-1" d="m194.92,21.39c23.06-4.9,47.18-6.27,71.61-3.61"/>
        <g>
          <path class="cls-1" d="m196.29,27.83l-2.74-12.89c16.21-3.45,32.85-5.15,49.4-5.09l-.06,13.17c-15.59-.05-31.31,1.55-46.6,4.8Z"/>
          <polygon class="cls-1" points="237.33 32.8 266.53 17.78 238.92 0 237.33 32.8"/>
        </g>
      </g>
      <g>
        <path class="cls-1" d="m61.35,95.25c3.1,2.39,3.49,6.06.91,9.41l-2.64,3.42,5.85,4.51-2.26,2.94-16.06-12.39,4.97-6.45c2.55-3.3,6.23-3.76,9.23-1.44Zm-2.39,3.1c-1.49-1.15-3.2-.93-4.45.7l-2.46,3.19,4.93,3.8,2.41-3.12c1.36-1.77,1.07-3.42-.43-4.57Z"/>
        <path class="cls-1" d="m62.73,92.74l2.22-2.53,1.78,1.09.15-.17c-.5-1.63-.52-2.96,1.08-4.79l.69-.78,2.79,2.44c-.41.34-.78.71-1.12,1.1-2.1,2.4-.89,4.58.68,5.95l5.08,4.45-2.44,2.79-10.9-9.55Z"/>
        <path class="cls-1" d="m74.9,89.74c-3.17-3.14-3.01-7.63.05-10.72s7.57-3.27,10.72-.15c3.19,3.16,3.07,7.65-.01,10.76-3.04,3.07-7.59,3.25-10.76.11Zm8.18-8.26c-1.71-1.69-4.17-1.89-5.84-.2-1.67,1.69-1.44,4.13.27,5.82,1.73,1.71,4.19,1.95,5.86.26,1.69-1.71,1.44-4.17-.29-5.88Z"/>
        <path class="cls-1" d="m89.5,57.83l13.49,15.53-2.28,1.98-1.36-1.08-.2.17c.08,1.16-.24,2.86-1.95,4.34-2.93,2.55-7.08,2.24-10.1-1.24-3.1-3.57-2.65-7.64.22-10.13,1.49-1.29,3.09-1.65,4.26-1.51l-4.88-5.62,2.8-2.43Zm5.92,12.48c-1.67-1.93-3.88-2.31-5.55-.86-1.66,1.44-1.64,3.73.03,5.65,1.71,1.97,3.97,2.31,5.63.87,1.66-1.44,1.59-3.69-.12-5.66Z"/>
        <path class="cls-1" d="m116.11,63.46l-2.71,2.04-1.28-1.18-.19.14c-.02,1.43-.47,2.85-2.21,4.16-2.76,2.07-5.84,1.63-8.12-1.4l-5.28-7.02,2.97-2.23,4.82,6.42c1.43,1.9,3.21,2.01,4.63.95,1.39-1.05,1.96-2.89.41-4.95l-4.72-6.28,2.97-2.23,8.71,11.59Z"/>
        <path class="cls-1" d="m113.83,56.32c-2.45-3.83-1.3-8.18,2.26-10.46,2.83-1.81,6.49-2.01,8.92.94l-3.13,2c-.99-.95-2.6-1.16-4.06-.22-1.86,1.19-2.26,3.57-.87,5.75,1.37,2.15,3.56,2.78,5.57,1.5,1.42-.91,1.96-2.15,1.64-3.52l3.15-2.01c1.33,3,.12,6.22-3.05,8.24-3.81,2.43-8.07,1.47-10.42-2.21Z"/>
        <path class="cls-1" d="m131.33,49.32l-3.71-6.66-2.71,1.51-1.43-2.56.86-.48c1.54-.86,1.84-1.76,1.08-3.12l-.85-1.52,2.94-1.64,1.92,3.44,3.31-1.85,1.43,2.56-3.31,1.85,3.47,6.23c.4.71,1.05,1.47,2.57.62.38-.21.82-.56,1.14-.87l1.37,2.45c-.49.44-1.16,1.01-2.07,1.52-3.54,1.97-5.23-.1-6.01-1.49Z"/>
        <path class="cls-1" d="m132.63,31.95c-.58-1.14-.06-2.5,1.02-3.05,1.09-.55,2.44-.13,3.01,1.01.54,1.06.1,2.45-.98,3-1.09.55-2.51.1-3.05-.96Zm2.23,3.45l3.31-1.67,6.54,12.93-3.31,1.67-6.54-12.93Z"/>
        <path class="cls-1" d="m143.6,38.97c-1.8-4.08,0-8.2,3.97-9.95,3.98-1.75,8.24-.28,10.03,3.78,1.81,4.11.05,8.24-3.95,10.01-3.95,1.74-8.25.25-10.05-3.84Zm10.63-4.69c-.97-2.2-3.19-3.28-5.36-2.32-2.17.96-2.85,3.31-1.88,5.51.98,2.23,3.19,3.35,5.36,2.39,2.2-.97,2.86-3.35,1.88-5.58Z"/>
        <path class="cls-1" d="m157.57,25.08l3.2-1.13.87,1.51.22-.08c.44-1.36,1.3-2.58,3.35-3.3,3.25-1.15,6.06.2,7.33,3.78l2.92,8.28-3.5,1.24-2.67-7.57c-.79-2.24-2.46-2.88-4.1-2.3-1.67.59-2.77,2.18-1.91,4.61l2.61,7.41-3.5,1.23-4.82-13.67Z"/>
      </g>
      <g>
        <path class="cls-1" d="m294.3,30.16l-3.73-.87,4.62-19.76,3.73.87-4.62,19.76Z"/>
        <path class="cls-1" d="m301.52,16.94l3.25.95-.17,1.73.22.07c1.15-.84,2.56-1.33,4.65-.72,3.31.97,4.81,3.7,3.74,7.34l-2.46,8.43-3.56-1.04,2.25-7.7c.67-2.28-.32-3.77-1.99-4.26-1.7-.5-3.51.15-4.24,2.62l-2.2,7.54-3.56-1.04,4.07-13.91Z"/>
        <path class="cls-1" d="m332.9,43.33l-3.13-1.3.36-1.7-.21-.09c-1.24.71-2.69,1.05-4.7.22-3.19-1.32-4.38-4.2-2.92-7.71l3.36-8.11,3.43,1.42-3.07,7.42c-.91,2.2-.1,3.79,1.54,4.46,1.61.67,3.49.22,4.47-2.16l3.01-7.26,3.43,1.42-5.55,13.39Z"/>
        <path class="cls-1" d="m336.78,40.04l3.19,1.59c-.51,1.49.25,2.55,1.58,3.21,1.01.5,2.09.55,2.55-.38.49-.99-.19-1.84-1.41-2.9l-1.07-.92c-1.53-1.28-3.16-2.96-1.89-5.51,1.29-2.6,4.26-2.84,6.83-1.56,3.5,1.74,4.2,4.38,3.32,6.6l-3.19-1.59c.33-1-.11-1.93-1.33-2.54-1.01-.5-1.96-.36-2.37.47-.45.91.32,1.58,1.39,2.54l1.07.92c1.97,1.69,3.07,3.53,1.86,5.97-1.33,2.67-4.21,2.73-6.96,1.37-3.66-1.82-4.72-4.51-3.57-7.28Z"/>
        <path class="cls-1" d="m361.28,53.35c-2,2.29-5.1,2.66-8.28.81-3.73-2.17-4.96-6.27-2.72-10.13,2.4-4.13,6.72-4.98,10.17-2.97,3.08,1.79,4.8,5.41,2.19,9.89-.17.3-.36.56-.59.9l-9.02-5.25c-.92,1.88-.5,3.86,1.45,5,1.4.82,2.74.82,3.72-.05l3.08,1.79Zm-6.97-8.88l5.99,3.48c.83-1.6.32-3.37-1.34-4.33-1.73-1.01-3.55-.52-4.65.85Z"/>
        <path class="cls-1" d="m378.13,70.82l-.33-3.33c-2.2.38-4.32.2-6.43-1.39-2.57-1.93-3.46-4.95-1.63-7.39,1.69-2.25,4.03-2.37,6.18-2.25l.75.06v-.04c-.19-1.92-.5-3.88.85-5.67,1.69-2.25,4.97-2.47,7.64-.46,2.69,2.02,3.54,4.94,1.82,7.24-1.38,1.83-3.34,2.13-5.79,2.07l-1.17-.04.4,4.1,3.64-.93,2.99,2.25-6.36,1.75.6,6.4-3.15-2.37Zm-.65-6.37l-.49-4.9-.73-.04c-1.49-.04-2.72.1-3.5,1.14-.77,1.02-.47,2.37.64,3.2,1.18.89,2.48.95,4.08.6Zm2.25-7.77l.98.05c1.53.09,2.74.03,3.47-.95.78-1.04.37-2.33-.69-3.13-1.16-.87-2.51-.76-3.28.26-.75,1-.65,2.12-.47,3.71v.06Z"/>
        <path class="cls-1" d="m398.02,68.52l2.48,2.27-1.13,1.75.17.16c1.64-.46,2.97-.46,4.77,1.18l.77.7-2.5,2.74c-.33-.42-.69-.79-1.08-1.14-2.35-2.15-4.56-.99-5.97.55l-4.56,4.98-2.74-2.5,9.78-10.7Z"/>
        <path class="cls-1" d="m408.72,92.84c-2.55,1.66-5.63,1.19-8.2-1.45-3.01-3.1-3.09-7.38.11-10.5,3.43-3.33,7.81-2.98,10.6-.11,2.49,2.56,3.17,6.5-.56,10.12-.25.24-.5.44-.81.71l-7.28-7.49c-1.39,1.56-1.53,3.59.05,5.21,1.13,1.16,2.42,1.53,3.59.95l2.49,2.56Zm-4.32-10.44l4.83,4.97c1.23-1.32,1.21-3.16-.12-4.53-1.39-1.43-3.28-1.46-4.71-.44Z"/>
        <path class="cls-1" d="m415.68,108.14l-2.18-2.6,1.11-1.34-.15-.18c-1.43.06-2.87-.31-4.27-1.98-2.22-2.64-1.95-5.75.96-8.19l6.73-5.64,2.38,2.84-6.15,5.16c-1.82,1.53-1.83,3.32-.7,4.67,1.12,1.33,2.99,1.81,4.97.15l6.02-5.05,2.38,2.84-11.1,9.31Z"/>
        <path class="cls-1" d="m420.66,107.02l2.1,2.88c-1.15,1.08-.96,2.38-.09,3.58.67.91,1.6,1.46,2.44.84.89-.65.68-1.72.09-3.22l-.52-1.31c-.77-1.84-1.43-4.08.86-5.76,2.34-1.71,5.09-.55,6.78,1.77,2.3,3.16,1.7,5.83-.1,7.39l-2.1-2.88c.76-.73.8-1.76,0-2.87-.67-.91-1.57-1.22-2.32-.68-.82.6-.45,1.55.06,2.89l.52,1.31c.97,2.41,1.09,4.55-1.11,6.15-2.41,1.76-4.99.48-6.8-2-2.41-3.3-2.1-6.18.2-8.1Z"/>
        <path class="cls-1" d="m436.24,130.16c-2.83,1.1-5.76,0-7.72-3.11-2.3-3.65-1.5-7.86,2.27-10.24,4.04-2.55,8.26-1.31,10.39,2.08,1.9,3.02,1.75,7.01-2.63,9.78-.3.18-.58.33-.94.52l-5.57-8.82c-1.69,1.24-2.24,3.19-1.03,5.1.87,1.37,2.05,2,3.32,1.68l1.9,3.02Zm-2.07-11.1l3.7,5.86c1.47-1.03,1.84-2.84.82-4.46-1.07-1.69-2.9-2.11-4.51-1.4Z"/>
      </g>
      <g>
        <path class="cls-1" d="m448.63,358.66l-1.96,3.18-11.48-7.06-.12.2,6.86,10.14-2.02,3.28-12.16-1.52-.12.2,11.48,7.06-1.96,3.19-17.28-10.62,2.46-4,15.08,2.03.12-.2-8.63-12.52,2.44-3.97,17.28,10.62Z"/>
        <path class="cls-1" d="m454.41,340.62l2.5,1.23-.69,1.4c-.6,1.22-1.44,2.01-2.85,1.86.68,1.43.72,3.13-.29,5.19-1.3,2.65-3.51,3.99-6.09,2.73-2.49-1.22-2.79-3.72-1.84-6.23l1.57-4.26-.55-.27c-1.43-.7-2.58-.14-3.2,1.14-.69,1.4-.27,2.52.8,3.3l-1.64,3.33c-2.58-1.59-3.45-4.6-1.82-7.93,1.49-3.04,4.24-4.76,7.73-3.05l4.76,2.34c.68.33,1.14.17,1.45-.45l.15-.31Zm-5.39,3.03l-1.12,3.07c-.46,1.26-.41,2.41.6,2.91,1.04.51,1.8-.12,2.31-1.16.69-1.4.88-3.5-1.17-4.51l-.62-.31Z"/>
        <path class="cls-1" d="m454.76,336.69l-7.02-2.96-1.21,2.86-2.7-1.14.38-.91c.69-1.63.37-2.52-1.07-3.13l-1.6-.68,1.31-3.1,3.63,1.53,1.48-3.5,2.7,1.14-1.48,3.5,6.57,2.77c.75.32,1.74.51,2.41-1.09.17-.4.3-.94.37-1.39l2.59,1.09c-.11.64-.29,1.51-.7,2.47-1.58,3.74-4.19,3.14-5.66,2.52Z"/>
        <path class="cls-1" d="m462.32,314.89c2.63,1.52,3.6,4.5,2.4,7.98-1.41,4.08-5.2,6.09-9.42,4.63-4.52-1.56-6.18-5.63-4.88-9.41,1.16-3.37,4.38-5.76,9.29-4.06.33.11.62.24.99.4l-3.41,9.87c2.02.55,3.89-.25,4.63-2.39.53-1.53.28-2.85-.77-3.64l1.16-3.37Zm-7.37,8.56l2.26-6.55c-1.73-.5-3.37.34-3.99,2.15-.65,1.89.17,3.59,1.73,4.4Z"/>
        <path class="cls-1" d="m453.67,309.33l.93-3.23,2.07.24.06-.22c-1.14-1.26-1.73-2.46-1.06-4.8l.29-1,3.56,1.03c-.23.48-.4.97-.54,1.47-.88,3.06,1.14,4.52,3.14,5.1l6.49,1.87-1.03,3.56-13.92-4.01Z"/>
        <path class="cls-1" d="m452.52,298.28c-1.24-.3-1.94-1.58-1.65-2.76.29-1.18,1.49-1.93,2.73-1.63,1.16.28,1.92,1.52,1.63,2.7-.29,1.18-1.56,1.97-2.71,1.69Zm4.07.56l.89-3.6,14.08,3.47-.89,3.6-14.07-3.47Z"/>
        <path class="cls-1" d="m472.34,281.12l2.73.53-.3,1.53c-.26,1.34-.86,2.31-2.27,2.54,1.03,1.21,1.52,2.83,1.08,5.08-.56,2.9-2.34,4.77-5.16,4.22-2.73-.53-3.67-2.87-3.41-5.53l.41-4.53-.6-.12c-1.56-.3-2.52.54-2.8,1.94-.3,1.54.4,2.5,1.64,2.97l-.71,3.64c-2.9-.86-4.54-3.54-3.83-7.18.65-3.33,2.85-5.7,6.66-4.96l5.21,1.01c.74.14,1.15-.13,1.28-.81l.07-.34Zm-4.42,4.34l-.28,3.25c-.11,1.34.24,2.44,1.34,2.65,1.14.22,1.71-.58,1.93-1.72.3-1.54-.06-3.61-2.31-4.05l-.68-.13Z"/>
        <path class="cls-1" d="m454.98,276.22l.52-3.67,20.38,2.89-.52,3.67-20.38-2.89Z"/>
        <path class="cls-1" d="m471.69,272.14l.34-3.55c1.58-.05,2.3-1.15,2.44-2.62.11-1.12-.23-2.15-1.27-2.25-1.1-.1-1.65.83-2.21,2.35l-.48,1.32c-.65,1.89-1.64,4.01-4.46,3.74-2.89-.28-4.17-2.96-3.9-5.82.37-3.89,2.59-5.49,4.98-5.46l-.34,3.55c-1.05.05-1.77.79-1.9,2.15-.11,1.12.37,1.96,1.29,2.05,1.01.1,1.36-.86,1.87-2.21l.48-1.32c.88-2.45,2.2-4.13,4.91-3.87,2.97.29,4.06,2.95,3.76,6.01-.39,4.07-2.53,6.02-5.52,5.93Z"/>
      </g>
      <g>
        <path class="cls-1" d="m219.13,468.95c-.86,6.14-5.06,9.53-11.2,8.67l-7.03-.99,2.83-20.09,7.03.99c6.14.87,9.25,5.2,8.37,11.43Zm-3.86-.66c.55-3.88-.92-6.8-5.14-7.4l-3.1-.44-1.87,13.32,3.1.44c4.22.59,6.46-2.02,7.01-5.92Z"/>
        <path class="cls-1" d="m235.26,475.51c-.76,2.94-3.36,4.68-7.03,4.46-4.31-.26-7.26-3.37-6.99-7.82.29-4.77,3.76-7.47,7.75-7.23,3.56.21,6.72,2.67,6.41,7.84-.02.35-.07.66-.12,1.07l-10.41-.62c.02,2.09,1.29,3.68,3.55,3.81,1.62.1,2.82-.5,3.3-1.72l3.56.21Zm-10.22-4.79l6.91.41c.02-1.8-1.23-3.15-3.14-3.27-2-.12-3.41,1.13-3.77,2.85Z"/>
        <path class="cls-1" d="m237.65,475.54l3.57-.06c.23,1.56,1.4,2.15,2.88,2.13,1.13-.02,2.11-.47,2.09-1.51-.02-1.1-1.01-1.55-2.58-1.93l-1.37-.33c-1.95-.43-4.17-1.18-4.21-4.02-.05-2.9,2.48-4.48,5.35-4.52,3.91-.06,5.74,1.97,5.98,4.34l-3.56.06c-.16-1.04-.98-1.67-2.35-1.65-1.13.02-1.9.58-1.89,1.51.02,1.02,1.01,1.26,2.4,1.61l1.37.33c2.53.6,4.35,1.73,4.39,4.45.05,2.99-2.48,4.36-5.56,4.41-4.09.06-6.26-1.84-6.51-4.83Z"/>
        <path class="cls-1" d="m251.27,461.33c-.07-1.27.95-2.31,2.17-2.37,1.22-.06,2.28.87,2.35,2.14.06,1.19-.9,2.28-2.12,2.34-1.22.06-2.34-.92-2.4-2.11Zm.64,4.06l3.71-.19.74,14.47-3.71.19-.74-14.47Z"/>
        <path class="cls-1" d="m269.98,465.94c.68.72,1.09,1.61,1.2,2.62.31,3.06-2.14,5.11-5.57,5.45-.9.09-1.71.06-2.46-.07-.44.28-.64.62-.6,1.02.08.84,1.03,1,2.01.9l2.83-.28c3.46-.35,5.42,1.15,5.68,3.74.31,3.09-2.1,5.19-6.28,5.61-4.59.46-6.95-1.6-7.5-4.14l2-2.15c-1.07-.45-1.79-1.33-1.91-2.49-.14-1.36.67-2.34,1.65-3.02-1.15-.73-1.91-1.85-2.05-3.35-.28-2.83,1.78-5.22,5.47-5.59,1.27-.13,2.45.02,3.42.39.88-.55,1.78-1.46,2.28-2.3l2.02,1.84c-.41.54-1.24,1.26-2.18,1.82Zm-2.33,2.92c-.13-1.33-1.18-2.18-2.77-2.03-1.61.16-2.53,1.22-2.4,2.54.13,1.27,1.23,2.12,2.85,1.96,1.59-.16,2.44-1.21,2.32-2.48Zm-.43,9.66l-2.62.26-1.74,1.81c.42.98,1.58,1.79,3.68,1.58,1.76-.18,3.17-.96,3.03-2.29-.12-1.21-1.28-1.47-2.35-1.37Z"/>
        <path class="cls-1" d="m273.62,463.5l3.34-.58.61,1.63.23-.04c.66-1.26,1.71-2.33,3.85-2.7,3.4-.59,5.94,1.2,6.59,4.94l1.51,8.65-3.65.64-1.38-7.91c-.41-2.34-1.95-3.25-3.66-2.95-1.74.3-3.09,1.68-2.65,4.23l1.35,7.74-3.65.64-2.48-14.27Z"/>
      </g>
      <g>
        <path class="cls-1" d="m6.81,223.5c.47-5.26,3.56-7.8,7.79-7.58l-.37,4.09c-2.22,0-3.67,1.29-3.9,3.81-.17,1.89.48,3.53,2.4,3.71,2.24.2,3.16-1.91,3.94-3.87l.49-1.23c1.06-2.63,2.99-5.32,6.64-4.99,3.94.35,6.07,3.78,5.69,8.03-.41,4.53-3.41,7.15-7.16,6.94l.37-4.09c1.75-.03,3.08-1.02,3.27-3.13.17-1.95-.74-3.4-2.35-3.54-1.89-.17-2.69,1.69-3.43,3.5l-.44,1.07c-.82,2.02-2.66,5.92-7.26,5.5-4.31-.39-6.04-4.16-5.67-8.22Z"/>
        <path class="cls-1" d="m6.15,250.37l.02-3.7,1.87-.33v-.25c-1.22-.96-2.17-2.29-2.15-4.66.02-3.76,2.44-6.15,6.59-6.12l9.58.06-.03,4.05-8.76-.06c-2.59-.02-3.87,1.46-3.88,3.39-.01,1.9,1.21,3.61,4.02,3.63l8.57.06-.03,4.05-15.81-.1Z"/>
        <path class="cls-1" d="m15.4,270.17c-5.14.4-8.42-2.64-8.74-6.77-.17-2.14.56-3.79,1.44-4.71l-7.79.61-.32-4.04,22.06-1.72.26,3.28-1.83.49.02.28c1.07.68,2.35,2.07,2.54,4.53.33,4.22-2.64,7.66-7.65,8.05Zm-.32-4.03c2.84-.22,4.6-1.98,4.42-4.37-.19-2.4-2.2-3.79-5.04-3.57-2.77.22-4.54,1.91-4.36,4.3s2.2,3.85,4.98,3.64Z"/>
        <path class="cls-1" d="m18.39,289.06c-5.09.83-8.61-1.92-9.28-6.01-.35-2.12.24-3.82,1.04-4.82l-7.71,1.26-.65-3.99,21.85-3.58.53,3.24-1.79.64.05.28c1.12.59,2.52,1.86,2.91,4.3.69,4.18-1.98,7.86-6.94,8.67Zm-.65-3.99c2.81-.46,4.42-2.36,4.03-4.73-.39-2.37-2.51-3.59-5.32-3.13-2.75.45-4.37,2.28-3.98,4.66.39,2.37,2.52,3.66,5.27,3.21Z"/>
        <path class="cls-1" d="m33.35,288.72l.88,3.95-21.91,4.9-.88-3.95,21.91-4.9Z"/>
        <path class="cls-1" d="m7.14,303.28l2.89-.81c.04.61.13,1.18.26,1.64.4,1.43,1.29,2.59,2.98,2.78l1.45.15-.34-1.22,13.59-10.1,1.13,4.02-10.07,7.3.07.24,12.32.71,1.13,4.02-18.84-1.34c-1.47-.08-4.97-.38-6.22-4.82-.28-1.01-.34-1.81-.36-2.56Z"/>
        <path class="cls-1" d="m28.28,323.92c4.59-1.88,9.03.19,10.78,4.46,1.39,3.39.9,7.35-2.74,9.39l-1.54-3.74c1.21-.87,1.75-2.56,1.03-4.32-.91-2.22-3.4-3.12-6-2.05-2.57,1.06-3.67,3.28-2.69,5.68.7,1.7,1.92,2.53,3.46,2.44l1.55,3.77c-3.48.85-6.7-1.08-8.26-4.88-1.87-4.56-.01-8.95,4.4-10.76Z"/>
        <path class="cls-1" d="m43.98,354l-8.54,4.35-1.83-3.61,7.81-3.97c2.31-1.18,2.76-3.08,1.9-4.77-.87-1.72-2.75-2.68-5.26-1.41l-7.64,3.89-1.84-3.61,20.01-10.18,1.83,3.61-7.58,3.86.11.23c1.53.28,2.98,1.04,4.05,3.15,1.71,3.35.65,6.59-3.04,8.46Z"/>
        <path class="cls-1" d="m48,373.29l-2.59,1.59-.89-1.46c-.78-1.27-1.01-2.49-.05-3.71-1.72-.2-3.31-1.16-4.61-3.29-1.69-2.75-1.63-5.56,1.04-7.2,2.59-1.59,5.06-.4,6.82,1.93l3.01,3.94.57-.35c1.48-.91,1.63-2.3.82-3.62-.89-1.46-2.16-1.71-3.51-1.18l-2.12-3.45c2.97-1.45,6.26-.5,8.37,2.95,1.93,3.15,1.91,6.69-1.7,8.9l-4.93,3.03c-.7.43-.82.95-.43,1.6l.2.32Zm.35-6.74l-2.18-2.82c-.9-1.16-1.99-1.79-3.04-1.14-1.08.66-.94,1.73-.28,2.81.89,1.46,2.72,2.86,4.85,1.55l.65-.4Z"/>
        <path class="cls-1" d="m60.1,368.18l2.3,3.33-12.99,9-2.3-3.33,12.99-9Zm3.39-2.93c1.14-.79,2.69-.44,3.45.65.76,1.09.5,2.61-.64,3.4-1.07.74-2.63.48-3.39-.61-.76-1.09-.49-2.7.58-3.44Z"/>
        <path class="cls-1" d="m64.09,374.03l2.28,2.92-1.26,1.42.16.2c1.56-.01,3.12.45,4.58,2.32,2.32,2.97,1.91,6.34-1.36,8.89l-7.55,5.9-2.49-3.19,6.9-5.4c2.04-1.6,2.12-3.55.95-5.04-1.19-1.52-3.21-2.11-5.43-.37l-6.75,5.28-2.49-3.19,12.45-9.74Z"/>
        <path class="cls-1" d="m66.95,394.91l2.62,2.87c-1.11,1.31-.75,2.7.33,3.89.83.91,1.91,1.39,2.75.62.89-.81.54-1.94-.28-3.5l-.72-1.35c-1.05-1.91-2.04-4.26.25-6.34,2.34-2.13,5.45-1.2,7.56,1.11,2.87,3.15,2.53,6.12.77,8.02l-2.62-2.87c.73-.88.65-2.01-.35-3.1-.83-.91-1.85-1.14-2.6-.46-.82.75-.3,1.73.41,3.13l.72,1.35c1.34,2.5,1.72,4.8-.47,6.81-2.41,2.19-5.36,1.11-7.61-1.36-3-3.3-3.01-6.45-.75-8.81Z"/>
      </g>
      <g>
        <path class="cls-1" d="m217.59,84.73l.51,2.68-11.16,2.14-3.12-16.31,10.93-2.09.51,2.68-7.92,1.52.78,4.05,6.83-1.31.5,2.61-6.83,1.31.82,4.29,8.15-1.56Z"/>
        <path class="cls-1" d="m218.54,75.39l2.76-.29.41,1.36.19-.02c.61-.99,1.53-1.81,3.3-1.99,2.81-.29,4.79,1.31,5.11,4.4l.75,7.14-3.02.32-.69-6.53c-.2-1.93-1.41-2.76-2.82-2.61-1.44.15-2.62,1.2-2.4,3.3l.67,6.39-3.02.32-1.24-11.79Z"/>
        <path class="cls-1" d="m244.16,81.88c-.42,2.45-2.42,4.04-5.43,4.11-3.53.08-6.15-2.25-6.23-5.9-.09-3.91,2.56-6.34,5.83-6.42,2.92-.07,5.66,1.72,5.76,5.96,0,.28-.01.55-.03.88l-8.53.2c.16,1.7,1.3,2.91,3.15,2.87,1.33-.03,2.26-.6,2.57-1.62l2.91-.07Zm-8.66-3.22l5.66-.13c-.1-1.47-1.22-2.49-2.78-2.45-1.64.04-2.7,1.15-2.88,2.58Z"/>
        <path class="cls-1" d="m246.52,73.88l2.75.12.21,1.69h.19c.79-1.14,1.62-1.84,3.61-1.75l.85.04-.13,3.03c-.42-.09-.85-.13-1.27-.15-2.6-.12-3.38,1.77-3.45,3.48l-.24,5.52-3.03-.13.52-11.84Z"/>
        <path class="cls-1" d="m264.93,76.95c.42.69.6,1.47.51,2.3-.27,2.5-2.58,3.73-5.38,3.42-.73-.08-1.38-.25-1.95-.48-.4.15-.61.39-.65.72-.07.68.66.98,1.46,1.07l2.31.25c2.83.31,4.14,1.84,3.91,3.96-.28,2.52-2.56,3.8-5.98,3.43-3.75-.41-5.29-2.46-5.3-4.59l1.96-1.38c-.78-.54-1.21-1.37-1.11-2.32.12-1.11.93-1.76,1.83-2.14-.8-.78-1.21-1.8-1.08-3.03.25-2.31,2.31-3.88,5.33-3.55,1.04.11,1.96.43,2.67.89.8-.3,1.67-.87,2.21-1.45l1.3,1.81c-.42.36-1.21.8-2.05,1.09Zm-4.34,9.6l-2.15-.23-1.7,1.15c.17.85.96,1.7,2.68,1.89,1.44.16,2.7-.23,2.81-1.32.11-.99-.78-1.4-1.65-1.49Zm1.98-7.66c.12-1.09-.58-1.95-1.87-2.09-1.32-.14-2.23.54-2.35,1.63-.11,1.04.63,1.91,1.95,2.05,1.3.14,2.16-.55,2.27-1.59Z"/>
        <path class="cls-1" d="m266.54,92.26l.43-2.21c.42.18.83.31,1.18.37,1.09.21,2.17,0,2.86-1.06l.59-.92-.93-.18-2.19-12.5,3.07.59,1.5,9.2.19.04,4.62-8.02,3.07.59-7.23,12.17c-.55.96-1.92,3.2-5.32,2.54-.77-.15-1.33-.38-1.84-.62Z"/>
      </g>
      <g>
        <path class="cls-1" d="m157.38,217.55c-1.19,3.78-3.86,5.15-6.92,4.31l.93-2.94c1.63.36,2.9-.36,3.46-2.16.43-1.36.22-2.67-1.16-3.1-1.6-.51-2.62.89-3.5,2.2l-.56.82c-1.2,1.76-3.04,3.42-5.66,2.59-2.83-.89-3.84-3.74-2.88-6.8,1.02-3.26,3.64-4.69,6.36-3.94l-.93,2.94c-1.29-.26-2.42.26-2.89,1.77-.44,1.4,0,2.61,1.15,2.97,1.36.43,2.24-.81,3.07-2.02l.5-.71c.92-1.35,2.89-3.91,6.2-2.87,3.1.98,3.76,4.02,2.84,6.93Z"/>
        <path class="cls-1" d="m155.9,201.57l8.53-1.27-1.45,3.01-6.17.96.53,1.62,3.57,1.72-1.31,2.74-15.17-7.29,1.31-2.73,8.18,3.93.08-.17-1.85-5.62,1.58-3.29,2.16,6.4Z"/>
        <path class="cls-1" d="m151.87,192.03c-.89-.54-1.13-1.7-.62-2.56.51-.85,1.63-1.15,2.53-.61.83.5,1.13,1.65.62,2.51-.51.85-1.7,1.16-2.53.66Zm3.05,1.42l1.57-2.6,10.15,6.12-1.57,2.6-10.15-6.12Z"/>
        <path class="cls-1" d="m153.89,185.67l1.71-2.51,13.9,9.49-1.71,2.51-13.9-9.49Z"/>
        <path class="cls-1" d="m157.47,180.59l1.86-2.4,13.32,10.3-1.86,2.4-13.32-10.3Z"/>
        <path class="cls-1" d="m170.73,184.64l1.98-2.14c1.05.75,2.06.39,2.88-.49.63-.68.92-1.51.29-2.09-.66-.61-1.49-.28-2.6.43l-.97.62c-1.36.91-3.05,1.79-4.76.21-1.74-1.61-1.24-4,.36-5.72,2.18-2.35,4.41-2.28,5.95-1.08l-1.98,2.14c-.71-.49-1.54-.36-2.3.46-.63.68-.73,1.45-.18,1.97.61.56,1.31.12,2.31-.51l.97-.62c1.79-1.16,3.48-1.59,5.11-.08,1.79,1.66,1.17,3.93-.54,5.77-2.27,2.45-4.63,2.66-6.53,1.12Z"/>
      </g>
      <g>
        <path class="cls-1" d="m294.65,172.09l.72-7.31-2.25-1.5-3.6,5.38-2.54-1.7,9.22-13.81,5.46,3.65c2.76,1.84,3.36,4.61,1.74,7.04-1.25,1.87-3.2,2.57-5.26,2.11l-.74,7.98-2.76-1.84Zm-.06-11.02l2.62,1.75c1.34.89,2.71.59,3.49-.58.82-1.22.52-2.53-.82-3.43l-2.62-1.75-2.67,4Z"/>
        <path class="cls-1" d="m308.83,179.24c-1.99,1.5-4.54,1.27-6.77-.75-2.62-2.37-2.92-5.87-.47-8.58,2.62-2.91,6.22-2.85,8.65-.66,2.17,1.96,2.93,5.14.09,8.29-.19.21-.38.39-.62.62l-6.34-5.73c-1.06,1.35-1.06,3.01.32,4.25.99.89,2.06,1.12,2.99.59l2.17,1.96Zm-4.08-8.29l4.21,3.8c.93-1.14.82-2.65-.34-3.7-1.21-1.1-2.76-1.02-3.87-.1Z"/>
        <path class="cls-1" d="m319.83,172.08l2.03,2.25-12.49,11.28-2.03-2.25,12.49-11.28Z"/>
        <path class="cls-1" d="m319.36,194.81l-1.83,1.35-.76-1.03c-.66-.9-.92-1.8-.28-2.77-1.3-.04-2.55-.65-3.66-2.16-1.44-1.94-1.58-4.05.31-5.45,1.83-1.35,3.76-.63,5.22,1l2.5,2.75.4-.3c1.05-.78,1.07-1.82.38-2.76-.76-1.03-1.73-1.14-2.7-.66l-1.8-2.44c2.12-1.28,4.64-.78,6.45,1.66,1.65,2.23,1.86,4.87-.69,6.76l-3.49,2.58c-.5.37-.56.76-.22,1.22l.17.23Zm-.17-5.06l-1.81-1.97c-.74-.81-1.6-1.21-2.34-.66-.76.56-.59,1.35-.03,2.12.76,1.03,2.22,1.96,3.72.85l.46-.34Z"/>
        <path class="cls-1" d="m321.28,196.51l5.35-3.2-1.3-2.18,2.05-1.23.41.69c.74,1.24,1.48,1.46,2.58.8l1.22-.73,1.41,2.36-2.77,1.66,1.6,2.66-2.05,1.23-1.6-2.66-5,3c-.57.34-1.17.9-.45,2.12.18.3.48.65.74.91l-1.97,1.18c-.37-.39-.86-.92-1.3-1.66-1.7-2.85-.05-4.28,1.07-4.95Z"/>
        <path class="cls-1" d="m332.79,199.49l1.31,2.74-10.69,5.12-1.31-2.74,10.7-5.12Zm2.86-1.77c.94-.45,2.05,0,2.48.89.43.9.06,1.99-.88,2.45-.88.42-2.01.04-2.44-.86-.43-.9-.04-2.06.84-2.48Z"/>
        <path class="cls-1" d="m329.81,206.64c3.44-1.22,6.69.49,7.88,3.84,1.19,3.35-.27,6.74-3.68,7.96-3.46,1.23-6.73-.45-7.93-3.82-1.18-3.33.29-6.75,3.73-7.97Zm3.19,8.96c1.85-.66,2.87-2.41,2.22-4.24-.65-1.83-2.53-2.52-4.39-1.86-1.88.67-2.92,2.4-2.27,4.23.66,1.86,2.56,2.54,4.44,1.87Z"/>
        <path class="cls-1" d="m340.37,219.54l.53,2.72-1.32.52.04.19c1.04.52,1.93,1.36,2.27,3.11.54,2.77-.89,4.88-3.94,5.47l-7.05,1.37-.58-2.98,6.45-1.25c1.91-.37,2.63-1.64,2.36-3.04-.28-1.42-1.43-2.5-3.5-2.1l-6.31,1.23-.58-2.98,11.64-2.26Z"/>
        <path class="cls-1" d="m334.81,234.04l.17,2.91c-1.27.24-1.71,1.22-1.64,2.42.05.92.45,1.71,1.31,1.66.9-.05,1.23-.88,1.49-2.18l.22-1.13c.29-1.61.82-3.44,3.14-3.58,2.37-.14,3.74,1.87,3.88,4.22.18,3.2-1.41,4.76-3.34,5.04l-.17-2.91c.85-.17,1.33-.86,1.26-1.97-.05-.92-.54-1.54-1.3-1.49-.83.05-.99.87-1.24,2.02l-.22,1.13c-.4,2.09-1.26,3.61-3.49,3.74-2.44.14-3.65-1.88-3.79-4.39-.19-3.34,1.29-5.18,3.72-5.49Z"/>
      </g>
      <g>
        <path class="cls-1" d="m187.11,330.31l.83-7.3-2.23-1.53-3.68,5.33-2.52-1.74,9.43-13.66,5.41,3.73c2.73,1.89,3.29,4.66,1.64,7.06-1.28,1.86-3.24,2.52-5.29,2.03l-.86,7.97-2.73-1.88Zm.11-11.02l2.6,1.79c1.33.92,2.71.63,3.5-.52.83-1.21.56-2.52-.77-3.44l-2.6-1.79-2.73,3.96Z"/>
        <path class="cls-1" d="m204.09,335.14c-1.5,1.98-4.01,2.47-6.72,1.14-3.17-1.56-4.41-4.84-2.81-8.12,1.72-3.51,5.2-4.45,8.13-3.01,2.62,1.29,4.23,4.14,2.36,7.95-.13.25-.26.48-.43.77l-7.66-3.76c-.65,1.59-.19,3.18,1.47,4,1.19.59,2.28.51,3.03-.25l2.62,1.29Zm-6.2-6.85l5.09,2.5c.58-1.35.06-2.77-1.34-3.46-1.47-.72-2.93-.22-3.75.96Z"/>
        <path class="cls-1" d="m217.64,332.93c.27.76.29,1.57.03,2.35-.78,2.39-3.29,3.11-5.97,2.24-.7-.23-1.3-.52-1.81-.87-.42.06-.68.25-.78.57-.21.65.44,1.09,1.21,1.34l2.21.72c2.7.89,3.67,2.65,3.01,4.68-.79,2.41-3.29,3.19-6.56,2.12-3.58-1.17-4.67-3.5-4.24-5.58l2.21-.95c-.65-.69-.9-1.59-.61-2.49.35-1.06,1.27-1.53,2.23-1.71-.62-.93-.81-2.01-.43-3.18.72-2.21,3.06-3.32,5.94-2.37.99.32,1.83.82,2.43,1.42.84-.12,1.81-.5,2.46-.96l.9,2.04c-.49.27-1.35.53-2.23.64Zm-6.22,8.49l-2.05-.67-1.9.78c-.01.87.59,1.86,2.23,2.4,1.37.45,2.69.33,3.03-.71.31-.95-.47-1.53-1.31-1.8Zm3.52-7.08c.34-1.04-.16-2.02-1.4-2.43-1.26-.41-2.29.07-2.63,1.11-.32.99.22,1.99,1.48,2.41,1.24.41,2.23-.09,2.55-1.09Z"/>
        <path class="cls-1" d="m230.1,345.81l-2.73-.48-.02-1.42-.19-.03c-.86.79-1.96,1.32-3.71,1.01-2.78-.49-4.24-2.57-3.71-5.63l1.24-7.08,2.99.52-1.13,6.47c-.33,1.91.6,3.04,2.03,3.29,1.4.25,2.82-.45,3.18-2.52l1.11-6.33,2.99.52-2.04,11.68Z"/>
        <path class="cls-1" d="m234.71,329.21l3.03.21-1.16,16.8-3.03-.21,1.16-16.8Z"/>
        <path class="cls-1" d="m251.2,343.87l.07,2.27-1.28.04c-1.11.03-2-.27-2.43-1.35-.78,1.04-1.99,1.72-3.86,1.77-2.42.07-4.23-1.02-4.3-3.36-.07-2.28,1.63-3.44,3.81-3.72l3.69-.49v-.5c-.05-1.3-.9-1.92-2.06-1.89-1.28.04-1.92.77-2.08,1.84l-3.03.09c.17-2.47,2.01-4.26,5.05-4.34,2.77-.08,5.07,1.25,5.16,4.43l.13,4.34c.02.62.31.89.88.88h.28Zm-4.25-2.76l-2.65.36c-1.09.15-1.9.62-1.88,1.55.03.95.77,1.26,1.72,1.23,1.28-.04,2.87-.7,2.82-2.57l-.02-.57Z"/>
        <path class="cls-1" d="m254.54,342.39l-.88-6.18-2.51.36-.34-2.37.8-.11c1.43-.21,1.92-.8,1.74-2.07l-.2-1.41,2.72-.39.46,3.19,3.08-.44.34,2.37-3.07.44.83,5.78c.09.66.37,1.43,1.78,1.23.35-.05.79-.18,1.13-.33l.33,2.28c-.5.19-1.18.43-2.03.55-3.29.47-3.97-1.61-4.15-2.9Z"/>
        <path class="cls-1" d="m259.7,329.42c-.23-1.02.45-2,1.42-2.22s1.96.38,2.19,1.4c.21.95-.41,1.96-1.38,2.18-.97.22-2.01-.42-2.23-1.37Zm1.09,3.18l2.96-.67,2.62,11.56-2.96.67-2.62-11.56Z"/>
        <path class="cls-1" d="m267.39,337.29c-1.18-3.45.57-6.68,3.93-7.84,3.37-1.15,6.74.35,7.91,3.78,1.19,3.48-.53,6.72-3.92,7.88-3.34,1.14-6.74-.37-7.93-3.83Zm9-3.08c-.64-1.86-2.37-2.9-4.21-2.27s-2.55,2.5-1.91,4.36c.64,1.88,2.36,2.95,4.2,2.32,1.86-.64,2.57-2.53,1.92-4.42Z"/>
        <path class="cls-1" d="m278.88,326.93l2.46-1.29.88,1.12.17-.09c.2-1.15.75-2.24,2.33-3.07,2.5-1.31,4.93-.55,6.37,2.2l3.33,6.37-2.69,1.41-3.05-5.82c-.9-1.72-2.33-2.05-3.59-1.39-1.28.67-1.99,2.08-1.01,3.95l2.98,5.69-2.69,1.41-5.5-10.5Z"/>
        <path class="cls-1" d="m294.94,327.37l2.38-1.69c.88.95,1.94.81,2.92.1.75-.54,1.21-1.29.71-1.99-.52-.74-1.4-.58-2.63-.11l-1.07.41c-1.52.61-3.36,1.13-4.7-.76-1.37-1.93-.4-4.17,1.52-5.53,2.61-1.85,4.78-1.33,6.05.16l-2.38,1.69c-.59-.63-1.43-.67-2.34-.02-.75.54-1.02,1.27-.58,1.89.48.68,1.26.38,2.37-.02l1.07-.41c1.99-.77,3.73-.85,5.02.97,1.41,1.99.34,4.09-1.71,5.55-2.73,1.93-5.08,1.66-6.63-.24Z"/>
      </g>
      <g>
        <path class="cls-1" d="m227.93,221.76l-5.67,16.6h-3.77l-5.67-16.6h3.37l4.13,12.41h.19l4.08-12.41h3.35Z"/>
        <path class="cls-1" d="m239.17,236.09v2.28h-1.28c-1.11,0-1.99-.33-2.4-1.42-.81,1.02-2.04,1.66-3.91,1.66-2.42,0-4.2-1.14-4.2-3.49s1.73-3.39,3.91-3.61l3.7-.38v-.5c0-1.3-.83-1.95-1.99-1.95-1.28,0-1.95.71-2.13,1.78h-3.04c.24-2.47,2.13-4.2,5.17-4.2,2.78,0,5.03,1.4,5.03,4.58v4.34c0,.62.28.9.85.9h.28Zm-4.17-2.87l-2.66.28c-1.09.12-1.92.57-1.92,1.49s.74,1.28,1.68,1.28c1.28,0,2.89-.62,2.89-2.49v-.57Z"/>
        <path class="cls-1" d="m240.73,221.52h3.04v16.84h-3.04v-16.84Z"/>
        <path class="cls-1" d="m257.48,238.37h-2.78l-.26-1.4h-.19c-.71.93-1.71,1.64-3.49,1.64-2.82,0-4.63-1.8-4.63-4.91v-7.19h3.04v6.57c0,1.95,1.11,2.89,2.56,2.89s2.7-.93,2.7-3.04v-6.43h3.04v11.86Z"/>
        <path class="cls-1" d="m271.02,234.62c-.47,2.44-2.52,3.99-5.53,3.99-3.54,0-6.1-2.4-6.1-6.05,0-3.91,2.7-6.29,5.98-6.29,2.92,0,5.62,1.85,5.62,6.1,0,.28-.02.55-.05.88h-8.54c.12,1.71,1.23,2.94,3.08,2.94,1.33,0,2.28-.55,2.61-1.57h2.92Zm-8.59-3.42h5.67c-.07-1.47-1.16-2.51-2.73-2.51s-2.73,1.09-2.94,2.51Z"/>
        <path class="cls-1" d="m204.45,252.85h2.78l.26,1.4h.19c.64-.88,1.64-1.64,3.25-1.64,1.87,0,2.7,1.02,3.11,1.87h.19c.64-.93,1.68-1.87,3.7-1.87,2.44,0,4.01,1.47,4.01,4.34v7.76h-3.04v-7.19c0-1.52-.9-2.28-2.04-2.28-1.28,0-2.16.95-2.16,2.44v7.02h-3.04v-7.09c0-1.57-.88-2.37-2.02-2.37s-2.16.78-2.16,2.42v7.05h-3.04v-11.86Z"/>
        <path class="cls-1" d="m223.8,258.76c0-3.65,2.7-6.14,6.26-6.14s6.26,2.51,6.26,6.14-2.68,6.19-6.26,6.19-6.26-2.54-6.26-6.19Zm9.51,0c0-1.97-1.3-3.51-3.25-3.51s-3.23,1.54-3.23,3.51,1.28,3.56,3.23,3.56,3.25-1.57,3.25-3.56Z"/>
        <path class="cls-1" d="m249.84,247.87v16.84h-2.47l-.26-1.4h-.21c-.57.76-1.68,1.64-3.53,1.64-3.18,0-5.57-2.42-5.57-6.19s2.47-6.14,5.57-6.14c1.61,0,2.8.64,3.44,1.35v-6.1h3.04Zm-3.04,10.89c0-2.09-1.16-3.51-2.96-3.51s-3.01,1.42-3.01,3.51,1.21,3.56,3.01,3.56,2.96-1.42,2.96-3.56Z"/>
        <path class="cls-1" d="m263.38,260.97c-.47,2.44-2.52,3.98-5.53,3.98-3.54,0-6.1-2.4-6.1-6.05,0-3.91,2.7-6.29,5.98-6.29,2.92,0,5.62,1.85,5.62,6.1,0,.28-.02.55-.05.88h-8.54c.12,1.71,1.23,2.94,3.08,2.94,1.33,0,2.28-.55,2.61-1.57h2.92Zm-8.59-3.42h5.67c-.07-1.47-1.16-2.52-2.73-2.52s-2.73,1.09-2.94,2.52Z"/>
        <path class="cls-1" d="m265.44,247.87h3.04v16.84h-3.04v-16.84Z"/>
        <path class="cls-1" d="m270.38,260.92h2.92c.17,1.28,1.12,1.78,2.32,1.78.93,0,1.73-.36,1.73-1.21,0-.9-.81-1.28-2.09-1.61l-1.12-.29c-1.59-.38-3.39-1.02-3.39-3.34s2.09-3.63,4.43-3.63c3.2,0,4.67,1.68,4.84,3.63h-2.92c-.12-.85-.78-1.38-1.9-1.38-.93,0-1.57.45-1.57,1.21,0,.83.81,1.04,1.95,1.35l1.11.29c2.06.52,3.54,1.47,3.54,3.7,0,2.44-2.09,3.53-4.6,3.53-3.35,0-5.1-1.59-5.27-4.03Z"/>
      </g>
    </g>
  </g>
</svg>